<svg width="45" height="45" viewBox="0 0 45 45" fill="none" xmlns="http://www.w3.org/2000/svg">
<rect width="45" height="45" rx="10" fill="#E1E9FF"/>
<path d="M19.9124 22.1997C19.9124 20.7707 21.0709 19.6122 22.4999 19.6122C23.9288 19.6122 25.0874 20.7707 25.0874 22.1997C25.0874 23.6287 23.9288 24.7872 22.4999 24.7872C21.0709 24.7872 19.9124 23.6287 19.9124 22.1997Z" fill="#1C274C"/>
<path fill-rule="evenodd" clip-rule="evenodd" d="M11 22.2C11 24.0853 11.4887 24.7202 12.4661 25.9901C14.4178 28.5255 17.6908 31.4 22.5 31.4C27.3092 31.4 30.5822 28.5255 32.5339 25.9901C33.5112 24.7202 34 24.0853 34 22.2C34 20.3147 33.5112 19.6798 32.5339 18.41C30.5822 15.8745 27.3092 13 22.5 13C17.6908 13 14.4178 15.8745 12.4661 18.41C11.4887 19.6798 11 20.3147 11 22.2ZM22.5 17.8875C20.1183 17.8875 18.1875 19.8183 18.1875 22.2C18.1875 24.5818 20.1183 26.5125 22.5 26.5125C24.8818 26.5125 26.8125 24.5818 26.8125 22.2C26.8125 19.8183 24.8818 17.8875 22.5 17.8875Z" fill="#1C274C"/>
</svg>
